<?xml version="1.0" encoding="UTF-8"?>
<svg id="_01" data-name="01" xmlns="http://www.w3.org/2000/svg" xmlns:xlink="http://www.w3.org/1999/xlink" version="1.1" viewBox="0 0 963 961.4">
  <defs>
    <style>
      .cls-1 {
        fill: #69d3a7;
      }

      .cls-1, .cls-2, .cls-3, .cls-4, .cls-5, .cls-6 {
        stroke-width: 0px;
      }

      .cls-2 {
        fill: url(#linear-gradient);
      }

      .cls-3 {
        fill: url(#linear-gradient-2);
      }

      .cls-4 {
        fill: url(#linear-gradient-3);
      }

      .cls-5 {
        fill: #1b1e2e;
      }

      .cls-6 {
        fill: #fff;
      }
    </style>
    <linearGradient id="linear-gradient" x1="889.5" y1="698.9" x2="723.2" y2="591.2" gradientUnits="userSpaceOnUse">
      <stop offset="0" stop-color="#69d3a7"/>
      <stop offset="1" stop-color="#69d3a7" stop-opacity="0"/>
    </linearGradient>
    <linearGradient id="linear-gradient-2" x1="312.2" y1="490.9" x2="154.8" y2="156.9" gradientUnits="userSpaceOnUse">
      <stop offset="0" stop-color="#69d3a7"/>
      <stop offset=".8" stop-color="#2ab586"/>
      <stop offset="1" stop-color="#1cae7f"/>
    </linearGradient>
    <linearGradient id="linear-gradient-3" x1="101.1" y1="835.4" x2="635.6" y2="667.6" gradientUnits="userSpaceOnUse">
      <stop offset="0" stop-color="#1cae7f"/>
      <stop offset=".2" stop-color="#1ca379"/>
      <stop offset=".3" stop-color="#1c8568"/>
      <stop offset=".5" stop-color="#1b554d"/>
      <stop offset=".7" stop-color="#1b1e2e"/>
    </linearGradient>
  </defs>
  <g>
    <path class="cls-5" d="M427.1,519.1l64.5,21.9-1.3,3.3c-25,60.7-82.4,98.5-149.9,98.5s-86.1-15.2-118-46.5c-31.6-31-47.7-69.9-47.7-115.6s16-85.1,47.7-116.2c31.9-31.3,70.5-46.5,118-46.5,67.5,0,125,37.7,149.9,98.5l1.3,3.3-64.4,21.9-1.2-2.8c-16-35.6-47.2-56.1-85.6-56.1s-49.2,9.3-67.1,27.7c-18.3,19.5-27.2,42.5-27.2,70.2s9.1,51,27.2,69.6c17.8,18.4,40.4,27.7,67.1,27.7,39.2,0,71.2-20.9,85.6-56l1.1-2.9Z"/>
    <path class="cls-2" d="M956.6,480.8c0,210.1-135.3,392.4-336.6,453.6l-19.2-63.3c173.2-52.6,289.6-209.5,289.6-390.4s-6-81-17.8-119.6c-2.6-8.5-5.5-16.9-8.7-25.3l61.8-23.5h0c20.5,53.8,30.9,110.4,30.9,168.5Z"/>
    <path class="cls-1" d="M935.7,341.6l-63.1,19.5h0c-52.9-172.6-210-288.5-391-288.5s-27.2.7-40.7,2c-4.9.5-9.8,1.1-14.7,1.7-1.6.2-3.2.4-4.8.7-1.3.2-2.6.4-4,.6-1.5.2-3,.5-4.5.7-1.4.2-2.9.5-4.3.7,0,0-.1,0-.2,0l-11.7-65.1h0c1.3-.2,2.5-.5,3.8-.7,2.8-.5,5.7-.9,8.5-1.4,23.9-3.7,48.3-5.6,72.6-5.6,199.8,0,374.6,121.7,444.2,305.9,3.6,9.6,7,19.4,10,29.3Z"/>
    <path class="cls-3" d="M440.8,74.6c-4.9.5-9.8,1.1-14.7,1.7-1.6.2-3.2.4-4.8.7-1.3.2-2.6.4-4,.6-1.5.2-3,.5-4.5.7-1.4.2-2.9.5-4.3.7,0,0-.1,0-.2,0C214.8,113.7,72.6,280.9,72.6,480.7s5.3,76.2,15.7,112.6c3,10.5,6.5,21,10.4,31.3l-61.8,23.3c-2.5-6.7-4.9-13.4-7.1-20.2-.5-1.7-1.1-3.4-1.6-5.1-.5-1.7-1-3.4-1.6-5.1-.5-1.7-1-3.4-1.5-5.1,0,0,0,0,0,0,0-.3-.2-.6-.3-1-12.2-42.3-18.3-86.2-18.3-130.8C6.5,248.5,171.7,54.1,396.6,14c1.3-.2,2.5-.5,3.8-.7,11.2-1.9,22.5-3.4,33.9-4.5l6.5,65.8Z"/>
    <polygon class="cls-5" points="815.1 324 597.1 854.6 585.3 883.4 519.2 870.2 519.2 870.2 613.6 641.2 484 324 559.6 324 652 556.4 743.7 324 815.1 324"/>
    <path class="cls-4" d="M597.2,854.6l-7,17-11.8,28.7c-13,31.5-43.3,52.8-77.2,54.2-6.6.3-13.2.4-19.8.4h-.1c-197.9,0-375.4-124.6-444.4-307h0c0-.1-.1-.3-.2-.4-2.5-6.5-4.8-13.1-6.9-19.7-.5-1.7-1.1-3.4-1.6-5.1-.5-1.7-1-3.4-1.6-5.1-.5-1.7-1-3.4-1.5-5.1,0,0,0,0,0,0-.1-.3-.2-.6-.3-1h0l63.5-18.2h0c49.9,174,211.5,295.5,393,295.5s11.4-.2,17.1-.4c8.2-.3,15.5-5.6,18.7-13.3l2-4.9,11.9-28.8,66,13.2h0Z"/>
  </g>
  <path class="cls-6" d="M872.6,361.1h0c-52.9-172.6-210-288.5-391-288.5s-27.2.7-40.7,2c-4.9.5-9.8,1.1-14.7,1.7-1.6.2-3.2.4-4.8.7-1.3.2-2.6.4-4,.6-1.5.2-3,.5-4.5.7-1.4.2-2.9.5-4.3.7,0,0-.1,0-.2,0C214.8,113.7,72.6,280.9,72.6,480.7s5.3,76.2,15.7,112.6h0c49.9,174,211.5,295.5,393,295.5s11.4-.2,17.1-.4c8.2-.3,15.5-5.6,18.7-13.3l2-4.9h0l94.4-229-129.6-317.2h75.6l92.4,232.4,91.7-232.4h71.4l-218,530.6h0s-7,17-7,17l10.6-.5c173.2-52.6,289.6-209.5,289.6-390.4s-6-81-17.8-119.6ZM490.3,416.5l1.3,3.3-64.4,21.9-1.2-2.8c-16-35.6-47.2-56.1-85.6-56.1s-49.2,9.3-67.1,27.7c-18.3,19.5-27.2,42.5-27.2,70.2s9.1,51,27.2,69.6c17.8,18.4,40.4,27.7,67.1,27.7,39.2,0,71.2-20.9,85.6-56l1.1-2.9,64.5,21.9-1.3,3.3c-25,60.7-82.4,98.5-149.9,98.5s-86.1-15.2-118-46.5c-31.6-31-47.7-69.9-47.7-115.6s16-85.1,47.7-116.2c31.9-31.3,70.5-46.5,118-46.5,67.5,0,125,37.7,149.9,98.5Z"/>
</svg>