<?xml version="1.0" encoding="UTF-8"?>
<svg id="Layer_1" data-name="Layer 1" xmlns="http://www.w3.org/2000/svg" version="1.1" viewBox="0 0 800 800">
  <defs>
    <style>
      .cls-1 {
        fill: #000;
      }

      .cls-1, .cls-2 {
        stroke-width: 0px;
      }

      .cls-2 {
        fill: #fff;
      }
    </style>
  </defs>
  <path class="cls-1" d="M796.4,341.8c-21.7-150.2-128.6-276.4-273.6-323.2-25.6-8.3-52.8-14-83.3-17.4-7.5-.8-59.2-1.6-65.7-1-1.7.2-7.2.7-12.1,1.1C248,11.5,141.6,72.8,74.2,167.1,36.7,219.5,12.7,278.9,3.6,341.8c-3.2,22-3.6,28.5-3.6,58.2s.4,36.3,3.6,58.2c21.7,150.2,128.6,276.4,273.6,323.2,26,8.4,53.3,14.1,84.5,17.5,12.1,1.3,64.5,1.3,76.6,0,53.7-5.9,99.2-19.2,144.1-42.1.7-.3,1.2-.6,1.8-.9,4.8-2.5,6.1-3.4,5.7-4.1,0,0-.1-.2-.2-.2-.6-.5-29.9-39.8-65.1-87.3l-64-86.4-80.2-118.6c-44.1-65.2-80.4-118.5-80.7-118.5s-.6,52.7-.8,117c-.2,112.7-.3,117.2-1.7,119.9-2,3.8-3.6,5.4-6.9,7.1-2.5,1.3-4.7,1.5-16.5,1.5h-13.5l-3.6-2.3c-2.3-1.5-4.1-3.4-5.2-5.7l-1.7-3.5.2-156.8.2-156.8,2.4-3c1.2-1.6,3.9-3.8,5.8-4.8,3.2-1.6,4.4-1.7,18-1.7s18.6.6,22.8,5.2c1.2,1.2,44.6,66.6,96.5,145.4,51.9,78.7,122.9,186.2,157.8,239l63.3,95.9,3.2-2.1c28.4-18.5,58.4-44.7,82.2-72.1,50.6-58.1,83.2-128.9,94.2-204.5,3.2-22,3.6-28.5,3.6-58.2s-.4-36.3-3.6-58.2ZM546.1,394.8l-.2,140.6-24.8-38-24.9-38v-102.2c0-66.1.3-103.2.8-105,1.2-4.4,4-7.8,7.7-9.8,3.2-1.6,4.4-1.8,16.7-1.8s13.6.2,16.2,1.6c3.8,1.9,6.8,5.5,7.9,9.2.6,2,.8,45.5.6,143.5Z"/>
  <path class="cls-2" d="M546.1,394.8l-.2,140.6-24.8-38-24.9-38v-102.2c0-66.1.3-103.2.8-105,1.2-4.4,4-7.8,7.7-9.8,3.2-1.6,4.4-1.8,16.7-1.8s13.6.2,16.2,1.6c3.8,1.9,6.8,5.5,7.9,9.2.6,2,.8,45.5.6,143.5Z"/>
  <path class="cls-2" d="M616.8,737l-26.9,14.8c0,0-.1-.2-.2-.2-.6-.5-29.9-39.8-65.1-87.3l-64-86.4-80.2-118.6c-44.1-65.2-80.4-118.5-80.7-118.5s-.6,52.7-.8,117c-.2,112.7-.3,117.2-1.7,119.9-2,3.8-3.6,5.4-6.9,7.1-2.5,1.3-4.7,1.5-16.5,1.5h-13.5l-3.6-2.3c-2.3-1.5-4.1-3.4-5.2-5.7l-1.7-3.5.2-156.8.2-156.8,2.4-3c1.2-1.6,3.9-3.8,5.8-4.8,3.2-1.6,4.4-1.7,18-1.7s18.6.6,22.8,5.2c1.2,1.2,44.6,66.6,96.5,145.4,51.9,78.7,122.9,186.2,157.8,239l63.3,95.9Z"/>
</svg>